<svg xmlns="http://www.w3.org/2000/svg" xmlns:xlink="http://www.w3.org/1999/xlink" id="Layer_1" x="0" y="0" version="1.1" viewBox="0 0 399 148" xml:space="preserve" style="enable-background:new 0 0 399 148"><style type="text/css">.st0{fill:url(#SVGID_1_)}.st1{fill:url(#SVGID_2_)}.st2{fill:#0080ff}.st3{opacity:.7}.st4{opacity:.5}.st5{fill:#000b1c}.st6{fill:none;stroke:#000b1c;stroke-width:.5;stroke-miterlimit:10}.st7{fill:#0686ef}.st8{fill:none;stroke:#fff;stroke-width:.5;stroke-miterlimit:10}.st11{font-family:&apos;ProximaNova-Semibold&apos;}.st12{font-size:57.5198px}</style><switch><g><g><linearGradient id="SVGID_1_" x1="64.958" x2="87.432" y1="24.347" y2="24.347" gradientTransform="matrix(0.9912 0.1326 -0.1326 0.9912 5.5847 55.8502)" gradientUnits="userSpaceOnUse"><stop offset="0" style="stop-color:#0080ff"/><stop offset="1" style="stop-color:#058dc9"/></linearGradient><path d="M81.3,82.7l-12.2,3.1c-2,0.5-3,2.8-2,4.6l3,5.4c0.7,1.4,2.4,2,3.8,1.5l13.2-4.7c2.2-0.8,2.8-3.6,1.1-5.3 l-4-3.8C83.5,82.7,82.3,82.4,81.3,82.7z" class="st0"/><linearGradient id="SVGID_2_" x1="73.999" x2="73.999" y1="91.53" y2="79.752" gradientUnits="userSpaceOnUse"><stop offset="0" style="stop-color:#0080ff"/><stop offset="1" style="stop-color:#1b75bb"/></linearGradient><polygon points="80.9 79.8 67.1 84.6 68 91.5 80.9 86.5" class="st1"/><path d="M33.5,37.1v57.2c0,0,0.7,7.5,7,9.8c0,0-5.4-6.6,2.7-9.6s37.7-13.3,37.7-13.3l14.4-5.1c0,0,6.5-2.3,7.2-9.8 l-0.1-51.4c0,0-1-8-9.9-5.9L42,27.2C42,27.2,33.6,29.6,33.5,37.1z" class="st2"/><g class="st3"><g class="st4"><path d="M37.1,39.1v51.3c0,0,0.6,6.7,6.3,8.7c0,0-4.9-5.9,2.4-8.6c7.3-2.7,33.8-11.9,33.8-11.9L92.5,74 c0,0,5.9-2.1,6.4-8.8l-0.1-46.1c0,0-0.9-7.2-8.9-5.2L44.7,30.2C44.7,30.2,37.2,32.3,37.1,39.1z" class="st5"/><path d="M37.1,39.1v51.3c0,0,0.6,6.7,6.3,8.7c0,0-4.9-5.9,2.4-8.6c7.3-2.7,33.8-11.9,33.8-11.9L92.5,74 c0,0,5.9-2.1,6.4-8.8l-0.1-46.1c0,0-0.9-7.2-8.9-5.2L44.7,30.2C44.7,30.2,37.2,32.3,37.1,39.1z" class="st6"/></g><g><path d="M37.1,39.1v51.3c0,0,0.6,6.7,6.3,8.7c0,0-4.9-5.9,2.4-8.6c7.3-2.7,33.8-11.9,33.8-11.9L92.5,74 c0,0,5.9-2.1,6.4-8.8l-0.1-46.1c0,0-0.9-7.2-8.9-5.2L44.7,30.2C44.7,30.2,37.2,32.3,37.1,39.1z" class="st7"/><path d="M37.1,39.1v51.3c0,0,0.6,6.7,6.3,8.7c0,0-4.9-5.9,2.4-8.6c7.3-2.7,33.8-11.9,33.8-11.9L92.5,74 c0,0,5.9-2.1,6.4-8.8l-0.1-46.1c0,0-0.9-7.2-8.9-5.2L44.7,30.2C44.7,30.2,37.2,32.3,37.1,39.1z" class="st8"/></g></g><g><image style="overflow:visible;opacity:.2" width="369" height="561" transform="matrix(0.24 0 0 0.24 9.714 3.64)" xlink:href="65D9F7974527E2F4.png"/><g><path d="M41.3,27.7c0,0-2.9,2.1-2.7,4.7c0,0,0.1,3.1,2.4,4.1c0,0,5.5,2.7,13.6,5.1l12.7,4.8c0,0,6.8,2.7,6.8,9.9 s0.1,50.5,0.1,50.5s1.8,8.8-6.8,6.8c-6.3-1.5-26-9.2-26-9.2s-7.2-2.4-7.6-10V36.8C33.7,36.8,34.2,30.1,41.3,27.7z" class="st2"/></g></g><g><image style="overflow:visible;opacity:.38" width="370" height="561" transform="matrix(0.24 0 0 0.24 9.474 22.12)" xlink:href="65D9F7974527E2F5.png"/><g><path d="M66.5,46.3c0,0,2.9,2.1,2.8,4.7c0,0-0.1,3.1-2.4,4.1c0,0-5.5,2.7-13.6,5.2l-12.7,4.9c0,0-6.8,2.7-6.8,9.9 c0,7.3,0,50.5,0,50.5s-1.8,8.8,6.8,6.8c6.3-1.5,26-9.2,26-9.2s7.2-2.4,7.6-10l-0.1-57.8C74.1,55.4,73.6,48.7,66.5,46.3z" class="st2"/></g></g></g><text class="st2 st11 st12" transform="matrix(1 0 0 1 116.4723 89.75)">Thismypc</text></g></switch></svg>